<mxfile host="Electron" modified="2023-06-10T17:49:42.524Z" agent="Mozilla/5.0 (Windows NT 10.0; Win64; x64) AppleWebKit/537.36 (KHTML, like Gecko) draw.io/21.2.8 Chrome/112.0.5615.165 Electron/24.2.0 Safari/537.36" etag="SMGm7ZnGmDgcPv8Fo0vJ" version="21.2.8" type="device">
  <diagram name="Page-1" id="zkEUI6N-L3uxVQGeKMTe">
    <mxGraphModel dx="880" dy="532" grid="1" gridSize="10" guides="1" tooltips="1" connect="1" arrows="1" fold="1" page="1" pageScale="1" pageWidth="850" pageHeight="1100" math="0" shadow="0">
      <root>
        <mxCell id="0" />
        <mxCell id="1" parent="0" />
        <mxCell id="RAKEjgkPjFQKeuStFPvZ-73" value="&lt;b&gt;&lt;font style=&quot;font-size: 14px;&quot;&gt;Responsible Person&lt;/font&gt;&lt;/b&gt;" style="text;html=1;align=center;verticalAlign=middle;resizable=0;points=[];autosize=1;strokeColor=none;fillColor=none;" parent="1" vertex="1">
          <mxGeometry x="40" y="560" width="160" height="30" as="geometry" />
        </mxCell>
        <mxCell id="RAKEjgkPjFQKeuStFPvZ-74" value="" style="shape=table;startSize=0;container=1;collapsible=0;childLayout=tableLayout;" parent="1" vertex="1">
          <mxGeometry x="40" y="590" width="360" height="290" as="geometry" />
        </mxCell>
        <mxCell id="RAKEjgkPjFQKeuStFPvZ-75" value="" style="shape=tableRow;horizontal=0;startSize=0;swimlaneHead=0;swimlaneBody=0;strokeColor=inherit;top=0;left=0;bottom=0;right=0;collapsible=0;dropTarget=0;fillColor=none;points=[[0,0.5],[1,0.5]];portConstraint=eastwest;" parent="RAKEjgkPjFQKeuStFPvZ-74" vertex="1">
          <mxGeometry width="360" height="41" as="geometry" />
        </mxCell>
        <mxCell id="RAKEjgkPjFQKeuStFPvZ-76" value="Column Name" style="shape=partialRectangle;html=1;whiteSpace=wrap;connectable=0;strokeColor=inherit;overflow=hidden;fillColor=none;top=0;left=0;bottom=0;right=0;pointerEvents=1;fontStyle=1" parent="RAKEjgkPjFQKeuStFPvZ-75" vertex="1">
          <mxGeometry width="120" height="41" as="geometry">
            <mxRectangle width="120" height="41" as="alternateBounds" />
          </mxGeometry>
        </mxCell>
        <mxCell id="RAKEjgkPjFQKeuStFPvZ-77" value="&lt;u&gt;Person_ID&lt;/u&gt;" style="shape=partialRectangle;html=1;whiteSpace=wrap;connectable=0;strokeColor=inherit;overflow=hidden;fillColor=none;top=0;left=0;bottom=0;right=0;pointerEvents=1;" parent="RAKEjgkPjFQKeuStFPvZ-75" vertex="1">
          <mxGeometry x="120" width="120" height="41" as="geometry">
            <mxRectangle width="120" height="41" as="alternateBounds" />
          </mxGeometry>
        </mxCell>
        <mxCell id="RAKEjgkPjFQKeuStFPvZ-78" value="Person_name" style="shape=partialRectangle;html=1;whiteSpace=wrap;connectable=0;strokeColor=inherit;overflow=hidden;fillColor=none;top=0;left=0;bottom=0;right=0;pointerEvents=1;" parent="RAKEjgkPjFQKeuStFPvZ-75" vertex="1">
          <mxGeometry x="240" width="120" height="41" as="geometry">
            <mxRectangle width="120" height="41" as="alternateBounds" />
          </mxGeometry>
        </mxCell>
        <mxCell id="RAKEjgkPjFQKeuStFPvZ-81" value="" style="shape=tableRow;horizontal=0;startSize=0;swimlaneHead=0;swimlaneBody=0;strokeColor=inherit;top=0;left=0;bottom=0;right=0;collapsible=0;dropTarget=0;fillColor=none;points=[[0,0.5],[1,0.5]];portConstraint=eastwest;" parent="RAKEjgkPjFQKeuStFPvZ-74" vertex="1">
          <mxGeometry y="41" width="360" height="42" as="geometry" />
        </mxCell>
        <mxCell id="RAKEjgkPjFQKeuStFPvZ-82" value="Key Type" style="shape=partialRectangle;html=1;whiteSpace=wrap;connectable=0;strokeColor=inherit;overflow=hidden;fillColor=none;top=0;left=0;bottom=0;right=0;pointerEvents=1;fontStyle=1" parent="RAKEjgkPjFQKeuStFPvZ-81" vertex="1">
          <mxGeometry width="120" height="42" as="geometry">
            <mxRectangle width="120" height="42" as="alternateBounds" />
          </mxGeometry>
        </mxCell>
        <mxCell id="RAKEjgkPjFQKeuStFPvZ-83" value="PK" style="shape=partialRectangle;html=1;whiteSpace=wrap;connectable=0;strokeColor=inherit;overflow=hidden;fillColor=none;top=0;left=0;bottom=0;right=0;pointerEvents=1;" parent="RAKEjgkPjFQKeuStFPvZ-81" vertex="1">
          <mxGeometry x="120" width="120" height="42" as="geometry">
            <mxRectangle width="120" height="42" as="alternateBounds" />
          </mxGeometry>
        </mxCell>
        <mxCell id="RAKEjgkPjFQKeuStFPvZ-84" value="" style="shape=partialRectangle;html=1;whiteSpace=wrap;connectable=0;strokeColor=inherit;overflow=hidden;fillColor=none;top=0;left=0;bottom=0;right=0;pointerEvents=1;" parent="RAKEjgkPjFQKeuStFPvZ-81" vertex="1">
          <mxGeometry x="240" width="120" height="42" as="geometry">
            <mxRectangle width="120" height="42" as="alternateBounds" />
          </mxGeometry>
        </mxCell>
        <mxCell id="RAKEjgkPjFQKeuStFPvZ-87" value="" style="shape=tableRow;horizontal=0;startSize=0;swimlaneHead=0;swimlaneBody=0;strokeColor=inherit;top=0;left=0;bottom=0;right=0;collapsible=0;dropTarget=0;fillColor=none;points=[[0,0.5],[1,0.5]];portConstraint=eastwest;" parent="RAKEjgkPjFQKeuStFPvZ-74" vertex="1">
          <mxGeometry y="83" width="360" height="41" as="geometry" />
        </mxCell>
        <mxCell id="RAKEjgkPjFQKeuStFPvZ-88" value="Null/Unique" style="shape=partialRectangle;html=1;whiteSpace=wrap;connectable=0;strokeColor=inherit;overflow=hidden;fillColor=none;top=0;left=0;bottom=0;right=0;pointerEvents=1;fontStyle=1" parent="RAKEjgkPjFQKeuStFPvZ-87" vertex="1">
          <mxGeometry width="120" height="41" as="geometry">
            <mxRectangle width="120" height="41" as="alternateBounds" />
          </mxGeometry>
        </mxCell>
        <mxCell id="RAKEjgkPjFQKeuStFPvZ-89" value="NN, U" style="shape=partialRectangle;html=1;whiteSpace=wrap;connectable=0;strokeColor=inherit;overflow=hidden;fillColor=none;top=0;left=0;bottom=0;right=0;pointerEvents=1;" parent="RAKEjgkPjFQKeuStFPvZ-87" vertex="1">
          <mxGeometry x="120" width="120" height="41" as="geometry">
            <mxRectangle width="120" height="41" as="alternateBounds" />
          </mxGeometry>
        </mxCell>
        <mxCell id="RAKEjgkPjFQKeuStFPvZ-90" value="NN" style="shape=partialRectangle;html=1;whiteSpace=wrap;connectable=0;strokeColor=inherit;overflow=hidden;fillColor=none;top=0;left=0;bottom=0;right=0;pointerEvents=1;" parent="RAKEjgkPjFQKeuStFPvZ-87" vertex="1">
          <mxGeometry x="240" width="120" height="41" as="geometry">
            <mxRectangle width="120" height="41" as="alternateBounds" />
          </mxGeometry>
        </mxCell>
        <mxCell id="RAKEjgkPjFQKeuStFPvZ-93" value="" style="shape=tableRow;horizontal=0;startSize=0;swimlaneHead=0;swimlaneBody=0;strokeColor=inherit;top=0;left=0;bottom=0;right=0;collapsible=0;dropTarget=0;fillColor=none;points=[[0,0.5],[1,0.5]];portConstraint=eastwest;" parent="RAKEjgkPjFQKeuStFPvZ-74" vertex="1">
          <mxGeometry y="124" width="360" height="42" as="geometry" />
        </mxCell>
        <mxCell id="RAKEjgkPjFQKeuStFPvZ-94" value="FK Table" style="shape=partialRectangle;html=1;whiteSpace=wrap;connectable=0;strokeColor=inherit;overflow=hidden;fillColor=none;top=0;left=0;bottom=0;right=0;pointerEvents=1;fontStyle=1" parent="RAKEjgkPjFQKeuStFPvZ-93" vertex="1">
          <mxGeometry width="120" height="42" as="geometry">
            <mxRectangle width="120" height="42" as="alternateBounds" />
          </mxGeometry>
        </mxCell>
        <mxCell id="RAKEjgkPjFQKeuStFPvZ-95" value="" style="shape=partialRectangle;html=1;whiteSpace=wrap;connectable=0;strokeColor=inherit;overflow=hidden;fillColor=none;top=0;left=0;bottom=0;right=0;pointerEvents=1;" parent="RAKEjgkPjFQKeuStFPvZ-93" vertex="1">
          <mxGeometry x="120" width="120" height="42" as="geometry">
            <mxRectangle width="120" height="42" as="alternateBounds" />
          </mxGeometry>
        </mxCell>
        <mxCell id="RAKEjgkPjFQKeuStFPvZ-96" value="" style="shape=partialRectangle;html=1;whiteSpace=wrap;connectable=0;strokeColor=inherit;overflow=hidden;fillColor=none;top=0;left=0;bottom=0;right=0;pointerEvents=1;" parent="RAKEjgkPjFQKeuStFPvZ-93" vertex="1">
          <mxGeometry x="240" width="120" height="42" as="geometry">
            <mxRectangle width="120" height="42" as="alternateBounds" />
          </mxGeometry>
        </mxCell>
        <mxCell id="RAKEjgkPjFQKeuStFPvZ-99" value="" style="shape=tableRow;horizontal=0;startSize=0;swimlaneHead=0;swimlaneBody=0;strokeColor=inherit;top=0;left=0;bottom=0;right=0;collapsible=0;dropTarget=0;fillColor=none;points=[[0,0.5],[1,0.5]];portConstraint=eastwest;" parent="RAKEjgkPjFQKeuStFPvZ-74" vertex="1">
          <mxGeometry y="166" width="360" height="41" as="geometry" />
        </mxCell>
        <mxCell id="RAKEjgkPjFQKeuStFPvZ-100" value="FK Column" style="shape=partialRectangle;html=1;whiteSpace=wrap;connectable=0;strokeColor=inherit;overflow=hidden;fillColor=none;top=0;left=0;bottom=0;right=0;pointerEvents=1;fontStyle=1" parent="RAKEjgkPjFQKeuStFPvZ-99" vertex="1">
          <mxGeometry width="120" height="41" as="geometry">
            <mxRectangle width="120" height="41" as="alternateBounds" />
          </mxGeometry>
        </mxCell>
        <mxCell id="RAKEjgkPjFQKeuStFPvZ-101" value="" style="shape=partialRectangle;html=1;whiteSpace=wrap;connectable=0;strokeColor=inherit;overflow=hidden;fillColor=none;top=0;left=0;bottom=0;right=0;pointerEvents=1;" parent="RAKEjgkPjFQKeuStFPvZ-99" vertex="1">
          <mxGeometry x="120" width="120" height="41" as="geometry">
            <mxRectangle width="120" height="41" as="alternateBounds" />
          </mxGeometry>
        </mxCell>
        <mxCell id="RAKEjgkPjFQKeuStFPvZ-102" value="" style="shape=partialRectangle;html=1;whiteSpace=wrap;connectable=0;strokeColor=inherit;overflow=hidden;fillColor=none;top=0;left=0;bottom=0;right=0;pointerEvents=1;" parent="RAKEjgkPjFQKeuStFPvZ-99" vertex="1">
          <mxGeometry x="240" width="120" height="41" as="geometry">
            <mxRectangle width="120" height="41" as="alternateBounds" />
          </mxGeometry>
        </mxCell>
        <mxCell id="RAKEjgkPjFQKeuStFPvZ-105" value="" style="shape=tableRow;horizontal=0;startSize=0;swimlaneHead=0;swimlaneBody=0;strokeColor=inherit;top=0;left=0;bottom=0;right=0;collapsible=0;dropTarget=0;fillColor=none;points=[[0,0.5],[1,0.5]];portConstraint=eastwest;" parent="RAKEjgkPjFQKeuStFPvZ-74" vertex="1">
          <mxGeometry y="207" width="360" height="42" as="geometry" />
        </mxCell>
        <mxCell id="RAKEjgkPjFQKeuStFPvZ-106" value="Datatype" style="shape=partialRectangle;html=1;whiteSpace=wrap;connectable=0;strokeColor=inherit;overflow=hidden;fillColor=none;top=0;left=0;bottom=0;right=0;pointerEvents=1;fontStyle=1" parent="RAKEjgkPjFQKeuStFPvZ-105" vertex="1">
          <mxGeometry width="120" height="42" as="geometry">
            <mxRectangle width="120" height="42" as="alternateBounds" />
          </mxGeometry>
        </mxCell>
        <mxCell id="RAKEjgkPjFQKeuStFPvZ-107" value="INT" style="shape=partialRectangle;html=1;whiteSpace=wrap;connectable=0;strokeColor=inherit;overflow=hidden;fillColor=none;top=0;left=0;bottom=0;right=0;pointerEvents=1;" parent="RAKEjgkPjFQKeuStFPvZ-105" vertex="1">
          <mxGeometry x="120" width="120" height="42" as="geometry">
            <mxRectangle width="120" height="42" as="alternateBounds" />
          </mxGeometry>
        </mxCell>
        <mxCell id="RAKEjgkPjFQKeuStFPvZ-108" value="NVARCHAR" style="shape=partialRectangle;html=1;whiteSpace=wrap;connectable=0;strokeColor=inherit;overflow=hidden;fillColor=none;top=0;left=0;bottom=0;right=0;pointerEvents=1;" parent="RAKEjgkPjFQKeuStFPvZ-105" vertex="1">
          <mxGeometry x="240" width="120" height="42" as="geometry">
            <mxRectangle width="120" height="42" as="alternateBounds" />
          </mxGeometry>
        </mxCell>
        <mxCell id="RAKEjgkPjFQKeuStFPvZ-111" value="" style="shape=tableRow;horizontal=0;startSize=0;swimlaneHead=0;swimlaneBody=0;strokeColor=inherit;top=0;left=0;bottom=0;right=0;collapsible=0;dropTarget=0;fillColor=none;points=[[0,0.5],[1,0.5]];portConstraint=eastwest;" parent="RAKEjgkPjFQKeuStFPvZ-74" vertex="1">
          <mxGeometry y="249" width="360" height="41" as="geometry" />
        </mxCell>
        <mxCell id="RAKEjgkPjFQKeuStFPvZ-112" value="Max Length" style="shape=partialRectangle;html=1;whiteSpace=wrap;connectable=0;strokeColor=inherit;overflow=hidden;fillColor=none;top=0;left=0;bottom=0;right=0;pointerEvents=1;fontStyle=1" parent="RAKEjgkPjFQKeuStFPvZ-111" vertex="1">
          <mxGeometry width="120" height="41" as="geometry">
            <mxRectangle width="120" height="41" as="alternateBounds" />
          </mxGeometry>
        </mxCell>
        <mxCell id="RAKEjgkPjFQKeuStFPvZ-113" value="" style="shape=partialRectangle;html=1;whiteSpace=wrap;connectable=0;strokeColor=inherit;overflow=hidden;fillColor=none;top=0;left=0;bottom=0;right=0;pointerEvents=1;" parent="RAKEjgkPjFQKeuStFPvZ-111" vertex="1">
          <mxGeometry x="120" width="120" height="41" as="geometry">
            <mxRectangle width="120" height="41" as="alternateBounds" />
          </mxGeometry>
        </mxCell>
        <mxCell id="RAKEjgkPjFQKeuStFPvZ-114" value="50" style="shape=partialRectangle;html=1;whiteSpace=wrap;connectable=0;strokeColor=inherit;overflow=hidden;fillColor=none;top=0;left=0;bottom=0;right=0;pointerEvents=1;" parent="RAKEjgkPjFQKeuStFPvZ-111" vertex="1">
          <mxGeometry x="240" width="120" height="41" as="geometry">
            <mxRectangle width="120" height="41" as="alternateBounds" />
          </mxGeometry>
        </mxCell>
        <mxCell id="UJf2TBtO_j2sOsm5yo5M-2" value="Categories" style="html=1;dashed=0;whiteSpace=wrap;" vertex="1" parent="1">
          <mxGeometry x="550" y="360" width="100" height="50" as="geometry" />
        </mxCell>
        <mxCell id="UJf2TBtO_j2sOsm5yo5M-3" value="Products" style="html=1;dashed=0;whiteSpace=wrap;" vertex="1" parent="1">
          <mxGeometry x="550" y="150" width="100" height="50" as="geometry" />
        </mxCell>
        <mxCell id="UJf2TBtO_j2sOsm5yo5M-4" value="Person_ID" style="ellipse;whiteSpace=wrap;html=1;fontStyle=5" vertex="1" parent="1">
          <mxGeometry x="50" y="40" width="100" height="50" as="geometry" />
        </mxCell>
        <mxCell id="UJf2TBtO_j2sOsm5yo5M-5" value="Responsible Person" style="html=1;dashed=0;whiteSpace=wrap;" vertex="1" parent="1">
          <mxGeometry x="130" y="150" width="100" height="50" as="geometry" />
        </mxCell>
        <mxCell id="UJf2TBtO_j2sOsm5yo5M-6" value="Person_name" style="ellipse;whiteSpace=wrap;html=1;" vertex="1" parent="1">
          <mxGeometry x="210" y="40" width="100" height="50" as="geometry" />
        </mxCell>
        <mxCell id="UJf2TBtO_j2sOsm5yo5M-7" value="Product_ID" style="ellipse;whiteSpace=wrap;html=1;fontStyle=5" vertex="1" parent="1">
          <mxGeometry x="390" y="50" width="100" height="50" as="geometry" />
        </mxCell>
        <mxCell id="UJf2TBtO_j2sOsm5yo5M-8" value="Product_name" style="ellipse;whiteSpace=wrap;html=1;" vertex="1" parent="1">
          <mxGeometry x="690" y="10" width="100" height="50" as="geometry" />
        </mxCell>
        <mxCell id="UJf2TBtO_j2sOsm5yo5M-9" value="Categori_ID" style="ellipse;whiteSpace=wrap;html=1;fontStyle=5" vertex="1" parent="1">
          <mxGeometry x="480" y="440" width="100" height="50" as="geometry" />
        </mxCell>
        <mxCell id="UJf2TBtO_j2sOsm5yo5M-10" value="Categori_name" style="ellipse;whiteSpace=wrap;html=1;" vertex="1" parent="1">
          <mxGeometry x="620" y="440" width="100" height="50" as="geometry" />
        </mxCell>
        <mxCell id="UJf2TBtO_j2sOsm5yo5M-11" value="Categori_ID*" style="ellipse;whiteSpace=wrap;html=1;fontStyle=0" vertex="1" parent="1">
          <mxGeometry x="580" width="100" height="50" as="geometry" />
        </mxCell>
        <mxCell id="UJf2TBtO_j2sOsm5yo5M-12" value="Person_ID*" style="ellipse;whiteSpace=wrap;html=1;fontStyle=0" vertex="1" parent="1">
          <mxGeometry x="470" width="100" height="50" as="geometry" />
        </mxCell>
        <mxCell id="UJf2TBtO_j2sOsm5yo5M-13" value="Product_date" style="ellipse;whiteSpace=wrap;html=1;" vertex="1" parent="1">
          <mxGeometry x="740" y="60" width="100" height="50" as="geometry" />
        </mxCell>
        <mxCell id="UJf2TBtO_j2sOsm5yo5M-14" value="" style="endArrow=none;html=1;rounded=0;exitX=0.25;exitY=0;exitDx=0;exitDy=0;entryX=0.5;entryY=1;entryDx=0;entryDy=0;" edge="1" parent="1" source="UJf2TBtO_j2sOsm5yo5M-5" target="UJf2TBtO_j2sOsm5yo5M-4">
          <mxGeometry width="50" height="50" relative="1" as="geometry">
            <mxPoint x="410" y="260" as="sourcePoint" />
            <mxPoint x="460" y="210" as="targetPoint" />
          </mxGeometry>
        </mxCell>
        <mxCell id="UJf2TBtO_j2sOsm5yo5M-15" value="" style="endArrow=none;html=1;rounded=0;exitX=0.75;exitY=0;exitDx=0;exitDy=0;entryX=0.5;entryY=1;entryDx=0;entryDy=0;" edge="1" parent="1" source="UJf2TBtO_j2sOsm5yo5M-5" target="UJf2TBtO_j2sOsm5yo5M-6">
          <mxGeometry width="50" height="50" relative="1" as="geometry">
            <mxPoint x="165" y="140" as="sourcePoint" />
            <mxPoint x="110" y="100" as="targetPoint" />
          </mxGeometry>
        </mxCell>
        <mxCell id="UJf2TBtO_j2sOsm5yo5M-16" value="" style="endArrow=none;html=1;rounded=0;exitX=0.5;exitY=1;exitDx=0;exitDy=0;entryX=0;entryY=0;entryDx=0;entryDy=0;" edge="1" parent="1" source="UJf2TBtO_j2sOsm5yo5M-7" target="UJf2TBtO_j2sOsm5yo5M-3">
          <mxGeometry width="50" height="50" relative="1" as="geometry">
            <mxPoint x="398" y="200" as="sourcePoint" />
            <mxPoint x="453" y="150" as="targetPoint" />
          </mxGeometry>
        </mxCell>
        <mxCell id="UJf2TBtO_j2sOsm5yo5M-17" value="" style="endArrow=none;html=1;rounded=0;exitX=1;exitY=0;exitDx=0;exitDy=0;entryX=0.44;entryY=1.02;entryDx=0;entryDy=0;entryPerimeter=0;" edge="1" parent="1" source="UJf2TBtO_j2sOsm5yo5M-3" target="UJf2TBtO_j2sOsm5yo5M-13">
          <mxGeometry width="50" height="50" relative="1" as="geometry">
            <mxPoint x="225" y="150" as="sourcePoint" />
            <mxPoint x="280" y="100" as="targetPoint" />
          </mxGeometry>
        </mxCell>
        <mxCell id="UJf2TBtO_j2sOsm5yo5M-18" value="" style="endArrow=none;html=1;rounded=0;exitX=0.75;exitY=0;exitDx=0;exitDy=0;entryX=0;entryY=1;entryDx=0;entryDy=0;" edge="1" parent="1" source="UJf2TBtO_j2sOsm5yo5M-3" target="UJf2TBtO_j2sOsm5yo5M-8">
          <mxGeometry width="50" height="50" relative="1" as="geometry">
            <mxPoint x="235" y="160" as="sourcePoint" />
            <mxPoint x="290" y="110" as="targetPoint" />
          </mxGeometry>
        </mxCell>
        <mxCell id="UJf2TBtO_j2sOsm5yo5M-19" value="" style="endArrow=none;html=1;rounded=0;exitX=0.5;exitY=1;exitDx=0;exitDy=0;entryX=0.5;entryY=0;entryDx=0;entryDy=0;" edge="1" parent="1" source="UJf2TBtO_j2sOsm5yo5M-11" target="UJf2TBtO_j2sOsm5yo5M-3">
          <mxGeometry width="50" height="50" relative="1" as="geometry">
            <mxPoint x="245" y="170" as="sourcePoint" />
            <mxPoint x="300" y="120" as="targetPoint" />
          </mxGeometry>
        </mxCell>
        <mxCell id="UJf2TBtO_j2sOsm5yo5M-20" value="" style="endArrow=none;html=1;rounded=0;exitX=0.5;exitY=1;exitDx=0;exitDy=0;entryX=0.25;entryY=0;entryDx=0;entryDy=0;" edge="1" parent="1" source="UJf2TBtO_j2sOsm5yo5M-12" target="UJf2TBtO_j2sOsm5yo5M-3">
          <mxGeometry width="50" height="50" relative="1" as="geometry">
            <mxPoint x="255" y="180" as="sourcePoint" />
            <mxPoint x="310" y="130" as="targetPoint" />
          </mxGeometry>
        </mxCell>
        <mxCell id="UJf2TBtO_j2sOsm5yo5M-21" value="" style="endArrow=none;html=1;rounded=0;exitX=0.5;exitY=0;exitDx=0;exitDy=0;entryX=0.75;entryY=1;entryDx=0;entryDy=0;" edge="1" parent="1" source="UJf2TBtO_j2sOsm5yo5M-10" target="UJf2TBtO_j2sOsm5yo5M-2">
          <mxGeometry width="50" height="50" relative="1" as="geometry">
            <mxPoint x="410" y="260" as="sourcePoint" />
            <mxPoint x="460" y="210" as="targetPoint" />
          </mxGeometry>
        </mxCell>
        <mxCell id="UJf2TBtO_j2sOsm5yo5M-22" value="" style="endArrow=none;html=1;rounded=0;exitX=0.5;exitY=0;exitDx=0;exitDy=0;entryX=0.25;entryY=1;entryDx=0;entryDy=0;" edge="1" parent="1" source="UJf2TBtO_j2sOsm5yo5M-9" target="UJf2TBtO_j2sOsm5yo5M-2">
          <mxGeometry width="50" height="50" relative="1" as="geometry">
            <mxPoint x="410" y="260" as="sourcePoint" />
            <mxPoint x="460" y="210" as="targetPoint" />
          </mxGeometry>
        </mxCell>
        <mxCell id="UJf2TBtO_j2sOsm5yo5M-23" value="Have" style="rhombus;whiteSpace=wrap;html=1;" vertex="1" parent="1">
          <mxGeometry x="550" y="250" width="100" height="60" as="geometry" />
        </mxCell>
        <mxCell id="UJf2TBtO_j2sOsm5yo5M-24" value="" style="endArrow=none;html=1;rounded=0;entryX=0.5;entryY=1;entryDx=0;entryDy=0;exitX=0.5;exitY=0;exitDx=0;exitDy=0;" edge="1" parent="1" source="UJf2TBtO_j2sOsm5yo5M-2" target="UJf2TBtO_j2sOsm5yo5M-23">
          <mxGeometry width="50" height="50" relative="1" as="geometry">
            <mxPoint x="410" y="360" as="sourcePoint" />
            <mxPoint x="460" y="310" as="targetPoint" />
          </mxGeometry>
        </mxCell>
        <mxCell id="UJf2TBtO_j2sOsm5yo5M-25" value="" style="endArrow=none;html=1;rounded=0;entryX=0.5;entryY=1;entryDx=0;entryDy=0;exitX=0.5;exitY=0;exitDx=0;exitDy=0;" edge="1" parent="1" source="UJf2TBtO_j2sOsm5yo5M-23" target="UJf2TBtO_j2sOsm5yo5M-3">
          <mxGeometry width="50" height="50" relative="1" as="geometry">
            <mxPoint x="410" y="360" as="sourcePoint" />
            <mxPoint x="460" y="310" as="targetPoint" />
          </mxGeometry>
        </mxCell>
        <mxCell id="UJf2TBtO_j2sOsm5yo5M-26" value="Responsible" style="rhombus;whiteSpace=wrap;html=1;" vertex="1" parent="1">
          <mxGeometry x="340" y="145" width="95" height="60" as="geometry" />
        </mxCell>
        <mxCell id="UJf2TBtO_j2sOsm5yo5M-27" value="" style="endArrow=none;html=1;rounded=0;exitX=1;exitY=0.5;exitDx=0;exitDy=0;entryX=0;entryY=0.5;entryDx=0;entryDy=0;" edge="1" parent="1" source="UJf2TBtO_j2sOsm5yo5M-26" target="UJf2TBtO_j2sOsm5yo5M-3">
          <mxGeometry width="50" height="50" relative="1" as="geometry">
            <mxPoint x="440" y="200" as="sourcePoint" />
            <mxPoint x="490" y="150" as="targetPoint" />
          </mxGeometry>
        </mxCell>
        <mxCell id="UJf2TBtO_j2sOsm5yo5M-28" value="" style="endArrow=none;html=1;rounded=0;exitX=1;exitY=0.5;exitDx=0;exitDy=0;entryX=0;entryY=0.5;entryDx=0;entryDy=0;" edge="1" parent="1" source="UJf2TBtO_j2sOsm5yo5M-5" target="UJf2TBtO_j2sOsm5yo5M-26">
          <mxGeometry width="50" height="50" relative="1" as="geometry">
            <mxPoint x="440" y="200" as="sourcePoint" />
            <mxPoint x="490" y="150" as="targetPoint" />
          </mxGeometry>
        </mxCell>
        <mxCell id="UJf2TBtO_j2sOsm5yo5M-29" value="" style="shape=table;startSize=0;container=1;collapsible=0;childLayout=tableLayout;" vertex="1" parent="1">
          <mxGeometry x="440" y="590" width="400" height="290" as="geometry" />
        </mxCell>
        <mxCell id="UJf2TBtO_j2sOsm5yo5M-30" value="" style="shape=tableRow;horizontal=0;startSize=0;swimlaneHead=0;swimlaneBody=0;strokeColor=inherit;top=0;left=0;bottom=0;right=0;collapsible=0;dropTarget=0;fillColor=none;points=[[0,0.5],[1,0.5]];portConstraint=eastwest;" vertex="1" parent="UJf2TBtO_j2sOsm5yo5M-29">
          <mxGeometry width="400" height="41" as="geometry" />
        </mxCell>
        <mxCell id="UJf2TBtO_j2sOsm5yo5M-31" value="Column Name" style="shape=partialRectangle;html=1;whiteSpace=wrap;connectable=0;strokeColor=inherit;overflow=hidden;fillColor=none;top=0;left=0;bottom=0;right=0;pointerEvents=1;fontStyle=1" vertex="1" parent="UJf2TBtO_j2sOsm5yo5M-30">
          <mxGeometry width="134" height="41" as="geometry">
            <mxRectangle width="134" height="41" as="alternateBounds" />
          </mxGeometry>
        </mxCell>
        <mxCell id="UJf2TBtO_j2sOsm5yo5M-32" value="&lt;u&gt;Categori_ID&lt;/u&gt;" style="shape=partialRectangle;html=1;whiteSpace=wrap;connectable=0;strokeColor=inherit;overflow=hidden;fillColor=none;top=0;left=0;bottom=0;right=0;pointerEvents=1;" vertex="1" parent="UJf2TBtO_j2sOsm5yo5M-30">
          <mxGeometry x="134" width="132" height="41" as="geometry">
            <mxRectangle width="132" height="41" as="alternateBounds" />
          </mxGeometry>
        </mxCell>
        <mxCell id="UJf2TBtO_j2sOsm5yo5M-33" value="Categori_name" style="shape=partialRectangle;html=1;whiteSpace=wrap;connectable=0;strokeColor=inherit;overflow=hidden;fillColor=none;top=0;left=0;bottom=0;right=0;pointerEvents=1;" vertex="1" parent="UJf2TBtO_j2sOsm5yo5M-30">
          <mxGeometry x="266" width="134" height="41" as="geometry">
            <mxRectangle width="134" height="41" as="alternateBounds" />
          </mxGeometry>
        </mxCell>
        <mxCell id="UJf2TBtO_j2sOsm5yo5M-34" value="" style="shape=tableRow;horizontal=0;startSize=0;swimlaneHead=0;swimlaneBody=0;strokeColor=inherit;top=0;left=0;bottom=0;right=0;collapsible=0;dropTarget=0;fillColor=none;points=[[0,0.5],[1,0.5]];portConstraint=eastwest;" vertex="1" parent="UJf2TBtO_j2sOsm5yo5M-29">
          <mxGeometry y="41" width="400" height="42" as="geometry" />
        </mxCell>
        <mxCell id="UJf2TBtO_j2sOsm5yo5M-35" value="Key Type" style="shape=partialRectangle;html=1;whiteSpace=wrap;connectable=0;strokeColor=inherit;overflow=hidden;fillColor=none;top=0;left=0;bottom=0;right=0;pointerEvents=1;fontStyle=1" vertex="1" parent="UJf2TBtO_j2sOsm5yo5M-34">
          <mxGeometry width="134" height="42" as="geometry">
            <mxRectangle width="134" height="42" as="alternateBounds" />
          </mxGeometry>
        </mxCell>
        <mxCell id="UJf2TBtO_j2sOsm5yo5M-36" value="PK" style="shape=partialRectangle;html=1;whiteSpace=wrap;connectable=0;strokeColor=inherit;overflow=hidden;fillColor=none;top=0;left=0;bottom=0;right=0;pointerEvents=1;" vertex="1" parent="UJf2TBtO_j2sOsm5yo5M-34">
          <mxGeometry x="134" width="132" height="42" as="geometry">
            <mxRectangle width="132" height="42" as="alternateBounds" />
          </mxGeometry>
        </mxCell>
        <mxCell id="UJf2TBtO_j2sOsm5yo5M-37" value="" style="shape=partialRectangle;html=1;whiteSpace=wrap;connectable=0;strokeColor=inherit;overflow=hidden;fillColor=none;top=0;left=0;bottom=0;right=0;pointerEvents=1;" vertex="1" parent="UJf2TBtO_j2sOsm5yo5M-34">
          <mxGeometry x="266" width="134" height="42" as="geometry">
            <mxRectangle width="134" height="42" as="alternateBounds" />
          </mxGeometry>
        </mxCell>
        <mxCell id="UJf2TBtO_j2sOsm5yo5M-38" value="" style="shape=tableRow;horizontal=0;startSize=0;swimlaneHead=0;swimlaneBody=0;strokeColor=inherit;top=0;left=0;bottom=0;right=0;collapsible=0;dropTarget=0;fillColor=none;points=[[0,0.5],[1,0.5]];portConstraint=eastwest;" vertex="1" parent="UJf2TBtO_j2sOsm5yo5M-29">
          <mxGeometry y="83" width="400" height="41" as="geometry" />
        </mxCell>
        <mxCell id="UJf2TBtO_j2sOsm5yo5M-39" value="Null/Unique" style="shape=partialRectangle;html=1;whiteSpace=wrap;connectable=0;strokeColor=inherit;overflow=hidden;fillColor=none;top=0;left=0;bottom=0;right=0;pointerEvents=1;fontStyle=1" vertex="1" parent="UJf2TBtO_j2sOsm5yo5M-38">
          <mxGeometry width="134" height="41" as="geometry">
            <mxRectangle width="134" height="41" as="alternateBounds" />
          </mxGeometry>
        </mxCell>
        <mxCell id="UJf2TBtO_j2sOsm5yo5M-40" value="NN, U" style="shape=partialRectangle;html=1;whiteSpace=wrap;connectable=0;strokeColor=inherit;overflow=hidden;fillColor=none;top=0;left=0;bottom=0;right=0;pointerEvents=1;" vertex="1" parent="UJf2TBtO_j2sOsm5yo5M-38">
          <mxGeometry x="134" width="132" height="41" as="geometry">
            <mxRectangle width="132" height="41" as="alternateBounds" />
          </mxGeometry>
        </mxCell>
        <mxCell id="UJf2TBtO_j2sOsm5yo5M-41" value="NN" style="shape=partialRectangle;html=1;whiteSpace=wrap;connectable=0;strokeColor=inherit;overflow=hidden;fillColor=none;top=0;left=0;bottom=0;right=0;pointerEvents=1;" vertex="1" parent="UJf2TBtO_j2sOsm5yo5M-38">
          <mxGeometry x="266" width="134" height="41" as="geometry">
            <mxRectangle width="134" height="41" as="alternateBounds" />
          </mxGeometry>
        </mxCell>
        <mxCell id="UJf2TBtO_j2sOsm5yo5M-42" value="" style="shape=tableRow;horizontal=0;startSize=0;swimlaneHead=0;swimlaneBody=0;strokeColor=inherit;top=0;left=0;bottom=0;right=0;collapsible=0;dropTarget=0;fillColor=none;points=[[0,0.5],[1,0.5]];portConstraint=eastwest;" vertex="1" parent="UJf2TBtO_j2sOsm5yo5M-29">
          <mxGeometry y="124" width="400" height="42" as="geometry" />
        </mxCell>
        <mxCell id="UJf2TBtO_j2sOsm5yo5M-43" value="FK Table" style="shape=partialRectangle;html=1;whiteSpace=wrap;connectable=0;strokeColor=inherit;overflow=hidden;fillColor=none;top=0;left=0;bottom=0;right=0;pointerEvents=1;fontStyle=1" vertex="1" parent="UJf2TBtO_j2sOsm5yo5M-42">
          <mxGeometry width="134" height="42" as="geometry">
            <mxRectangle width="134" height="42" as="alternateBounds" />
          </mxGeometry>
        </mxCell>
        <mxCell id="UJf2TBtO_j2sOsm5yo5M-44" value="" style="shape=partialRectangle;html=1;whiteSpace=wrap;connectable=0;strokeColor=inherit;overflow=hidden;fillColor=none;top=0;left=0;bottom=0;right=0;pointerEvents=1;" vertex="1" parent="UJf2TBtO_j2sOsm5yo5M-42">
          <mxGeometry x="134" width="132" height="42" as="geometry">
            <mxRectangle width="132" height="42" as="alternateBounds" />
          </mxGeometry>
        </mxCell>
        <mxCell id="UJf2TBtO_j2sOsm5yo5M-45" value="" style="shape=partialRectangle;html=1;whiteSpace=wrap;connectable=0;strokeColor=inherit;overflow=hidden;fillColor=none;top=0;left=0;bottom=0;right=0;pointerEvents=1;" vertex="1" parent="UJf2TBtO_j2sOsm5yo5M-42">
          <mxGeometry x="266" width="134" height="42" as="geometry">
            <mxRectangle width="134" height="42" as="alternateBounds" />
          </mxGeometry>
        </mxCell>
        <mxCell id="UJf2TBtO_j2sOsm5yo5M-46" value="" style="shape=tableRow;horizontal=0;startSize=0;swimlaneHead=0;swimlaneBody=0;strokeColor=inherit;top=0;left=0;bottom=0;right=0;collapsible=0;dropTarget=0;fillColor=none;points=[[0,0.5],[1,0.5]];portConstraint=eastwest;" vertex="1" parent="UJf2TBtO_j2sOsm5yo5M-29">
          <mxGeometry y="166" width="400" height="41" as="geometry" />
        </mxCell>
        <mxCell id="UJf2TBtO_j2sOsm5yo5M-47" value="FK Column" style="shape=partialRectangle;html=1;whiteSpace=wrap;connectable=0;strokeColor=inherit;overflow=hidden;fillColor=none;top=0;left=0;bottom=0;right=0;pointerEvents=1;fontStyle=1" vertex="1" parent="UJf2TBtO_j2sOsm5yo5M-46">
          <mxGeometry width="134" height="41" as="geometry">
            <mxRectangle width="134" height="41" as="alternateBounds" />
          </mxGeometry>
        </mxCell>
        <mxCell id="UJf2TBtO_j2sOsm5yo5M-48" value="" style="shape=partialRectangle;html=1;whiteSpace=wrap;connectable=0;strokeColor=inherit;overflow=hidden;fillColor=none;top=0;left=0;bottom=0;right=0;pointerEvents=1;" vertex="1" parent="UJf2TBtO_j2sOsm5yo5M-46">
          <mxGeometry x="134" width="132" height="41" as="geometry">
            <mxRectangle width="132" height="41" as="alternateBounds" />
          </mxGeometry>
        </mxCell>
        <mxCell id="UJf2TBtO_j2sOsm5yo5M-49" value="" style="shape=partialRectangle;html=1;whiteSpace=wrap;connectable=0;strokeColor=inherit;overflow=hidden;fillColor=none;top=0;left=0;bottom=0;right=0;pointerEvents=1;" vertex="1" parent="UJf2TBtO_j2sOsm5yo5M-46">
          <mxGeometry x="266" width="134" height="41" as="geometry">
            <mxRectangle width="134" height="41" as="alternateBounds" />
          </mxGeometry>
        </mxCell>
        <mxCell id="UJf2TBtO_j2sOsm5yo5M-50" value="" style="shape=tableRow;horizontal=0;startSize=0;swimlaneHead=0;swimlaneBody=0;strokeColor=inherit;top=0;left=0;bottom=0;right=0;collapsible=0;dropTarget=0;fillColor=none;points=[[0,0.5],[1,0.5]];portConstraint=eastwest;" vertex="1" parent="UJf2TBtO_j2sOsm5yo5M-29">
          <mxGeometry y="207" width="400" height="42" as="geometry" />
        </mxCell>
        <mxCell id="UJf2TBtO_j2sOsm5yo5M-51" value="Datatype" style="shape=partialRectangle;html=1;whiteSpace=wrap;connectable=0;strokeColor=inherit;overflow=hidden;fillColor=none;top=0;left=0;bottom=0;right=0;pointerEvents=1;fontStyle=1" vertex="1" parent="UJf2TBtO_j2sOsm5yo5M-50">
          <mxGeometry width="134" height="42" as="geometry">
            <mxRectangle width="134" height="42" as="alternateBounds" />
          </mxGeometry>
        </mxCell>
        <mxCell id="UJf2TBtO_j2sOsm5yo5M-52" value="NVARCHAR" style="shape=partialRectangle;html=1;whiteSpace=wrap;connectable=0;strokeColor=inherit;overflow=hidden;fillColor=none;top=0;left=0;bottom=0;right=0;pointerEvents=1;" vertex="1" parent="UJf2TBtO_j2sOsm5yo5M-50">
          <mxGeometry x="134" width="132" height="42" as="geometry">
            <mxRectangle width="132" height="42" as="alternateBounds" />
          </mxGeometry>
        </mxCell>
        <mxCell id="UJf2TBtO_j2sOsm5yo5M-53" value="NVARCHAR" style="shape=partialRectangle;html=1;whiteSpace=wrap;connectable=0;strokeColor=inherit;overflow=hidden;fillColor=none;top=0;left=0;bottom=0;right=0;pointerEvents=1;" vertex="1" parent="UJf2TBtO_j2sOsm5yo5M-50">
          <mxGeometry x="266" width="134" height="42" as="geometry">
            <mxRectangle width="134" height="42" as="alternateBounds" />
          </mxGeometry>
        </mxCell>
        <mxCell id="UJf2TBtO_j2sOsm5yo5M-54" value="" style="shape=tableRow;horizontal=0;startSize=0;swimlaneHead=0;swimlaneBody=0;strokeColor=inherit;top=0;left=0;bottom=0;right=0;collapsible=0;dropTarget=0;fillColor=none;points=[[0,0.5],[1,0.5]];portConstraint=eastwest;" vertex="1" parent="UJf2TBtO_j2sOsm5yo5M-29">
          <mxGeometry y="249" width="400" height="41" as="geometry" />
        </mxCell>
        <mxCell id="UJf2TBtO_j2sOsm5yo5M-55" value="Max Length" style="shape=partialRectangle;html=1;whiteSpace=wrap;connectable=0;strokeColor=inherit;overflow=hidden;fillColor=none;top=0;left=0;bottom=0;right=0;pointerEvents=1;fontStyle=1" vertex="1" parent="UJf2TBtO_j2sOsm5yo5M-54">
          <mxGeometry width="134" height="41" as="geometry">
            <mxRectangle width="134" height="41" as="alternateBounds" />
          </mxGeometry>
        </mxCell>
        <mxCell id="UJf2TBtO_j2sOsm5yo5M-56" value="20" style="shape=partialRectangle;html=1;whiteSpace=wrap;connectable=0;strokeColor=inherit;overflow=hidden;fillColor=none;top=0;left=0;bottom=0;right=0;pointerEvents=1;" vertex="1" parent="UJf2TBtO_j2sOsm5yo5M-54">
          <mxGeometry x="134" width="132" height="41" as="geometry">
            <mxRectangle width="132" height="41" as="alternateBounds" />
          </mxGeometry>
        </mxCell>
        <mxCell id="UJf2TBtO_j2sOsm5yo5M-57" value="50" style="shape=partialRectangle;html=1;whiteSpace=wrap;connectable=0;strokeColor=inherit;overflow=hidden;fillColor=none;top=0;left=0;bottom=0;right=0;pointerEvents=1;" vertex="1" parent="UJf2TBtO_j2sOsm5yo5M-54">
          <mxGeometry x="266" width="134" height="41" as="geometry">
            <mxRectangle width="134" height="41" as="alternateBounds" />
          </mxGeometry>
        </mxCell>
        <mxCell id="UJf2TBtO_j2sOsm5yo5M-58" value="&lt;b&gt;&lt;font style=&quot;font-size: 14px;&quot;&gt;Categories&lt;/font&gt;&lt;/b&gt;" style="text;html=1;align=center;verticalAlign=middle;resizable=0;points=[];autosize=1;strokeColor=none;fillColor=none;" vertex="1" parent="1">
          <mxGeometry x="435" y="560" width="100" height="30" as="geometry" />
        </mxCell>
        <mxCell id="UJf2TBtO_j2sOsm5yo5M-59" value="" style="shape=table;startSize=0;container=1;collapsible=0;childLayout=tableLayout;" vertex="1" parent="1">
          <mxGeometry x="40" y="920" width="800" height="280" as="geometry" />
        </mxCell>
        <mxCell id="UJf2TBtO_j2sOsm5yo5M-60" value="" style="shape=tableRow;horizontal=0;startSize=0;swimlaneHead=0;swimlaneBody=0;strokeColor=inherit;top=0;left=0;bottom=0;right=0;collapsible=0;dropTarget=0;fillColor=none;points=[[0,0.5],[1,0.5]];portConstraint=eastwest;" vertex="1" parent="UJf2TBtO_j2sOsm5yo5M-59">
          <mxGeometry width="800" height="40" as="geometry" />
        </mxCell>
        <mxCell id="UJf2TBtO_j2sOsm5yo5M-61" value="Column Name" style="shape=partialRectangle;html=1;whiteSpace=wrap;connectable=0;strokeColor=inherit;overflow=hidden;fillColor=none;top=0;left=0;bottom=0;right=0;pointerEvents=1;fontStyle=1" vertex="1" parent="UJf2TBtO_j2sOsm5yo5M-60">
          <mxGeometry width="133" height="40" as="geometry">
            <mxRectangle width="133" height="40" as="alternateBounds" />
          </mxGeometry>
        </mxCell>
        <mxCell id="UJf2TBtO_j2sOsm5yo5M-62" value="Product_ID" style="shape=partialRectangle;html=1;whiteSpace=wrap;connectable=0;strokeColor=inherit;overflow=hidden;fillColor=none;top=0;left=0;bottom=0;right=0;pointerEvents=1;fontStyle=4" vertex="1" parent="UJf2TBtO_j2sOsm5yo5M-60">
          <mxGeometry x="133" width="134" height="40" as="geometry">
            <mxRectangle width="134" height="40" as="alternateBounds" />
          </mxGeometry>
        </mxCell>
        <mxCell id="UJf2TBtO_j2sOsm5yo5M-63" value="Person_ID*" style="shape=partialRectangle;html=1;whiteSpace=wrap;connectable=0;strokeColor=inherit;overflow=hidden;fillColor=none;top=0;left=0;bottom=0;right=0;pointerEvents=1;" vertex="1" parent="UJf2TBtO_j2sOsm5yo5M-60">
          <mxGeometry x="267" width="133" height="40" as="geometry">
            <mxRectangle width="133" height="40" as="alternateBounds" />
          </mxGeometry>
        </mxCell>
        <mxCell id="UJf2TBtO_j2sOsm5yo5M-102" value="Categori_ID*" style="shape=partialRectangle;html=1;whiteSpace=wrap;connectable=0;strokeColor=inherit;overflow=hidden;fillColor=none;top=0;left=0;bottom=0;right=0;pointerEvents=1;" vertex="1" parent="UJf2TBtO_j2sOsm5yo5M-60">
          <mxGeometry x="400" width="133" height="40" as="geometry">
            <mxRectangle width="133" height="40" as="alternateBounds" />
          </mxGeometry>
        </mxCell>
        <mxCell id="UJf2TBtO_j2sOsm5yo5M-95" value="Product_name" style="shape=partialRectangle;html=1;whiteSpace=wrap;connectable=0;strokeColor=inherit;overflow=hidden;fillColor=none;top=0;left=0;bottom=0;right=0;pointerEvents=1;" vertex="1" parent="UJf2TBtO_j2sOsm5yo5M-60">
          <mxGeometry x="533" width="134" height="40" as="geometry">
            <mxRectangle width="134" height="40" as="alternateBounds" />
          </mxGeometry>
        </mxCell>
        <mxCell id="UJf2TBtO_j2sOsm5yo5M-88" value="Product_date" style="shape=partialRectangle;html=1;whiteSpace=wrap;connectable=0;strokeColor=inherit;overflow=hidden;fillColor=none;top=0;left=0;bottom=0;right=0;pointerEvents=1;" vertex="1" parent="UJf2TBtO_j2sOsm5yo5M-60">
          <mxGeometry x="667" width="133" height="40" as="geometry">
            <mxRectangle width="133" height="40" as="alternateBounds" />
          </mxGeometry>
        </mxCell>
        <mxCell id="UJf2TBtO_j2sOsm5yo5M-64" value="" style="shape=tableRow;horizontal=0;startSize=0;swimlaneHead=0;swimlaneBody=0;strokeColor=inherit;top=0;left=0;bottom=0;right=0;collapsible=0;dropTarget=0;fillColor=none;points=[[0,0.5],[1,0.5]];portConstraint=eastwest;" vertex="1" parent="UJf2TBtO_j2sOsm5yo5M-59">
          <mxGeometry y="40" width="800" height="40" as="geometry" />
        </mxCell>
        <mxCell id="UJf2TBtO_j2sOsm5yo5M-65" value="Key Type" style="shape=partialRectangle;html=1;whiteSpace=wrap;connectable=0;strokeColor=inherit;overflow=hidden;fillColor=none;top=0;left=0;bottom=0;right=0;pointerEvents=1;fontStyle=1" vertex="1" parent="UJf2TBtO_j2sOsm5yo5M-64">
          <mxGeometry width="133" height="40" as="geometry">
            <mxRectangle width="133" height="40" as="alternateBounds" />
          </mxGeometry>
        </mxCell>
        <mxCell id="UJf2TBtO_j2sOsm5yo5M-66" value="PK" style="shape=partialRectangle;html=1;whiteSpace=wrap;connectable=0;strokeColor=inherit;overflow=hidden;fillColor=none;top=0;left=0;bottom=0;right=0;pointerEvents=1;" vertex="1" parent="UJf2TBtO_j2sOsm5yo5M-64">
          <mxGeometry x="133" width="134" height="40" as="geometry">
            <mxRectangle width="134" height="40" as="alternateBounds" />
          </mxGeometry>
        </mxCell>
        <mxCell id="UJf2TBtO_j2sOsm5yo5M-67" value="FK" style="shape=partialRectangle;html=1;whiteSpace=wrap;connectable=0;strokeColor=inherit;overflow=hidden;fillColor=none;top=0;left=0;bottom=0;right=0;pointerEvents=1;" vertex="1" parent="UJf2TBtO_j2sOsm5yo5M-64">
          <mxGeometry x="267" width="133" height="40" as="geometry">
            <mxRectangle width="133" height="40" as="alternateBounds" />
          </mxGeometry>
        </mxCell>
        <mxCell id="UJf2TBtO_j2sOsm5yo5M-103" value="FK" style="shape=partialRectangle;html=1;whiteSpace=wrap;connectable=0;strokeColor=inherit;overflow=hidden;fillColor=none;top=0;left=0;bottom=0;right=0;pointerEvents=1;" vertex="1" parent="UJf2TBtO_j2sOsm5yo5M-64">
          <mxGeometry x="400" width="133" height="40" as="geometry">
            <mxRectangle width="133" height="40" as="alternateBounds" />
          </mxGeometry>
        </mxCell>
        <mxCell id="UJf2TBtO_j2sOsm5yo5M-96" style="shape=partialRectangle;html=1;whiteSpace=wrap;connectable=0;strokeColor=inherit;overflow=hidden;fillColor=none;top=0;left=0;bottom=0;right=0;pointerEvents=1;" vertex="1" parent="UJf2TBtO_j2sOsm5yo5M-64">
          <mxGeometry x="533" width="134" height="40" as="geometry">
            <mxRectangle width="134" height="40" as="alternateBounds" />
          </mxGeometry>
        </mxCell>
        <mxCell id="UJf2TBtO_j2sOsm5yo5M-89" style="shape=partialRectangle;html=1;whiteSpace=wrap;connectable=0;strokeColor=inherit;overflow=hidden;fillColor=none;top=0;left=0;bottom=0;right=0;pointerEvents=1;" vertex="1" parent="UJf2TBtO_j2sOsm5yo5M-64">
          <mxGeometry x="667" width="133" height="40" as="geometry">
            <mxRectangle width="133" height="40" as="alternateBounds" />
          </mxGeometry>
        </mxCell>
        <mxCell id="UJf2TBtO_j2sOsm5yo5M-68" value="" style="shape=tableRow;horizontal=0;startSize=0;swimlaneHead=0;swimlaneBody=0;strokeColor=inherit;top=0;left=0;bottom=0;right=0;collapsible=0;dropTarget=0;fillColor=none;points=[[0,0.5],[1,0.5]];portConstraint=eastwest;" vertex="1" parent="UJf2TBtO_j2sOsm5yo5M-59">
          <mxGeometry y="80" width="800" height="40" as="geometry" />
        </mxCell>
        <mxCell id="UJf2TBtO_j2sOsm5yo5M-69" value="Null/Unique" style="shape=partialRectangle;html=1;whiteSpace=wrap;connectable=0;strokeColor=inherit;overflow=hidden;fillColor=none;top=0;left=0;bottom=0;right=0;pointerEvents=1;fontStyle=1" vertex="1" parent="UJf2TBtO_j2sOsm5yo5M-68">
          <mxGeometry width="133" height="40" as="geometry">
            <mxRectangle width="133" height="40" as="alternateBounds" />
          </mxGeometry>
        </mxCell>
        <mxCell id="UJf2TBtO_j2sOsm5yo5M-70" value="NN, U" style="shape=partialRectangle;html=1;whiteSpace=wrap;connectable=0;strokeColor=inherit;overflow=hidden;fillColor=none;top=0;left=0;bottom=0;right=0;pointerEvents=1;" vertex="1" parent="UJf2TBtO_j2sOsm5yo5M-68">
          <mxGeometry x="133" width="134" height="40" as="geometry">
            <mxRectangle width="134" height="40" as="alternateBounds" />
          </mxGeometry>
        </mxCell>
        <mxCell id="UJf2TBtO_j2sOsm5yo5M-71" value="NN" style="shape=partialRectangle;html=1;whiteSpace=wrap;connectable=0;strokeColor=inherit;overflow=hidden;fillColor=none;top=0;left=0;bottom=0;right=0;pointerEvents=1;" vertex="1" parent="UJf2TBtO_j2sOsm5yo5M-68">
          <mxGeometry x="267" width="133" height="40" as="geometry">
            <mxRectangle width="133" height="40" as="alternateBounds" />
          </mxGeometry>
        </mxCell>
        <mxCell id="UJf2TBtO_j2sOsm5yo5M-104" value="NN" style="shape=partialRectangle;html=1;whiteSpace=wrap;connectable=0;strokeColor=inherit;overflow=hidden;fillColor=none;top=0;left=0;bottom=0;right=0;pointerEvents=1;" vertex="1" parent="UJf2TBtO_j2sOsm5yo5M-68">
          <mxGeometry x="400" width="133" height="40" as="geometry">
            <mxRectangle width="133" height="40" as="alternateBounds" />
          </mxGeometry>
        </mxCell>
        <mxCell id="UJf2TBtO_j2sOsm5yo5M-97" style="shape=partialRectangle;html=1;whiteSpace=wrap;connectable=0;strokeColor=inherit;overflow=hidden;fillColor=none;top=0;left=0;bottom=0;right=0;pointerEvents=1;" vertex="1" parent="UJf2TBtO_j2sOsm5yo5M-68">
          <mxGeometry x="533" width="134" height="40" as="geometry">
            <mxRectangle width="134" height="40" as="alternateBounds" />
          </mxGeometry>
        </mxCell>
        <mxCell id="UJf2TBtO_j2sOsm5yo5M-90" value="NN" style="shape=partialRectangle;html=1;whiteSpace=wrap;connectable=0;strokeColor=inherit;overflow=hidden;fillColor=none;top=0;left=0;bottom=0;right=0;pointerEvents=1;" vertex="1" parent="UJf2TBtO_j2sOsm5yo5M-68">
          <mxGeometry x="667" width="133" height="40" as="geometry">
            <mxRectangle width="133" height="40" as="alternateBounds" />
          </mxGeometry>
        </mxCell>
        <mxCell id="UJf2TBtO_j2sOsm5yo5M-72" value="" style="shape=tableRow;horizontal=0;startSize=0;swimlaneHead=0;swimlaneBody=0;strokeColor=inherit;top=0;left=0;bottom=0;right=0;collapsible=0;dropTarget=0;fillColor=none;points=[[0,0.5],[1,0.5]];portConstraint=eastwest;" vertex="1" parent="UJf2TBtO_j2sOsm5yo5M-59">
          <mxGeometry y="120" width="800" height="40" as="geometry" />
        </mxCell>
        <mxCell id="UJf2TBtO_j2sOsm5yo5M-73" value="FK Table" style="shape=partialRectangle;html=1;whiteSpace=wrap;connectable=0;strokeColor=inherit;overflow=hidden;fillColor=none;top=0;left=0;bottom=0;right=0;pointerEvents=1;fontStyle=1" vertex="1" parent="UJf2TBtO_j2sOsm5yo5M-72">
          <mxGeometry width="133" height="40" as="geometry">
            <mxRectangle width="133" height="40" as="alternateBounds" />
          </mxGeometry>
        </mxCell>
        <mxCell id="UJf2TBtO_j2sOsm5yo5M-74" value="" style="shape=partialRectangle;html=1;whiteSpace=wrap;connectable=0;strokeColor=inherit;overflow=hidden;fillColor=none;top=0;left=0;bottom=0;right=0;pointerEvents=1;" vertex="1" parent="UJf2TBtO_j2sOsm5yo5M-72">
          <mxGeometry x="133" width="134" height="40" as="geometry">
            <mxRectangle width="134" height="40" as="alternateBounds" />
          </mxGeometry>
        </mxCell>
        <mxCell id="UJf2TBtO_j2sOsm5yo5M-75" value="" style="shape=partialRectangle;html=1;whiteSpace=wrap;connectable=0;strokeColor=inherit;overflow=hidden;fillColor=none;top=0;left=0;bottom=0;right=0;pointerEvents=1;" vertex="1" parent="UJf2TBtO_j2sOsm5yo5M-72">
          <mxGeometry x="267" width="133" height="40" as="geometry">
            <mxRectangle width="133" height="40" as="alternateBounds" />
          </mxGeometry>
        </mxCell>
        <mxCell id="UJf2TBtO_j2sOsm5yo5M-105" style="shape=partialRectangle;html=1;whiteSpace=wrap;connectable=0;strokeColor=inherit;overflow=hidden;fillColor=none;top=0;left=0;bottom=0;right=0;pointerEvents=1;" vertex="1" parent="UJf2TBtO_j2sOsm5yo5M-72">
          <mxGeometry x="400" width="133" height="40" as="geometry">
            <mxRectangle width="133" height="40" as="alternateBounds" />
          </mxGeometry>
        </mxCell>
        <mxCell id="UJf2TBtO_j2sOsm5yo5M-98" style="shape=partialRectangle;html=1;whiteSpace=wrap;connectable=0;strokeColor=inherit;overflow=hidden;fillColor=none;top=0;left=0;bottom=0;right=0;pointerEvents=1;" vertex="1" parent="UJf2TBtO_j2sOsm5yo5M-72">
          <mxGeometry x="533" width="134" height="40" as="geometry">
            <mxRectangle width="134" height="40" as="alternateBounds" />
          </mxGeometry>
        </mxCell>
        <mxCell id="UJf2TBtO_j2sOsm5yo5M-91" style="shape=partialRectangle;html=1;whiteSpace=wrap;connectable=0;strokeColor=inherit;overflow=hidden;fillColor=none;top=0;left=0;bottom=0;right=0;pointerEvents=1;" vertex="1" parent="UJf2TBtO_j2sOsm5yo5M-72">
          <mxGeometry x="667" width="133" height="40" as="geometry">
            <mxRectangle width="133" height="40" as="alternateBounds" />
          </mxGeometry>
        </mxCell>
        <mxCell id="UJf2TBtO_j2sOsm5yo5M-76" value="" style="shape=tableRow;horizontal=0;startSize=0;swimlaneHead=0;swimlaneBody=0;strokeColor=inherit;top=0;left=0;bottom=0;right=0;collapsible=0;dropTarget=0;fillColor=none;points=[[0,0.5],[1,0.5]];portConstraint=eastwest;" vertex="1" parent="UJf2TBtO_j2sOsm5yo5M-59">
          <mxGeometry y="160" width="800" height="40" as="geometry" />
        </mxCell>
        <mxCell id="UJf2TBtO_j2sOsm5yo5M-77" value="FK Column" style="shape=partialRectangle;html=1;whiteSpace=wrap;connectable=0;strokeColor=inherit;overflow=hidden;fillColor=none;top=0;left=0;bottom=0;right=0;pointerEvents=1;fontStyle=1" vertex="1" parent="UJf2TBtO_j2sOsm5yo5M-76">
          <mxGeometry width="133" height="40" as="geometry">
            <mxRectangle width="133" height="40" as="alternateBounds" />
          </mxGeometry>
        </mxCell>
        <mxCell id="UJf2TBtO_j2sOsm5yo5M-78" value="" style="shape=partialRectangle;html=1;whiteSpace=wrap;connectable=0;strokeColor=inherit;overflow=hidden;fillColor=none;top=0;left=0;bottom=0;right=0;pointerEvents=1;" vertex="1" parent="UJf2TBtO_j2sOsm5yo5M-76">
          <mxGeometry x="133" width="134" height="40" as="geometry">
            <mxRectangle width="134" height="40" as="alternateBounds" />
          </mxGeometry>
        </mxCell>
        <mxCell id="UJf2TBtO_j2sOsm5yo5M-79" value="" style="shape=partialRectangle;html=1;whiteSpace=wrap;connectable=0;strokeColor=inherit;overflow=hidden;fillColor=none;top=0;left=0;bottom=0;right=0;pointerEvents=1;" vertex="1" parent="UJf2TBtO_j2sOsm5yo5M-76">
          <mxGeometry x="267" width="133" height="40" as="geometry">
            <mxRectangle width="133" height="40" as="alternateBounds" />
          </mxGeometry>
        </mxCell>
        <mxCell id="UJf2TBtO_j2sOsm5yo5M-106" style="shape=partialRectangle;html=1;whiteSpace=wrap;connectable=0;strokeColor=inherit;overflow=hidden;fillColor=none;top=0;left=0;bottom=0;right=0;pointerEvents=1;" vertex="1" parent="UJf2TBtO_j2sOsm5yo5M-76">
          <mxGeometry x="400" width="133" height="40" as="geometry">
            <mxRectangle width="133" height="40" as="alternateBounds" />
          </mxGeometry>
        </mxCell>
        <mxCell id="UJf2TBtO_j2sOsm5yo5M-99" style="shape=partialRectangle;html=1;whiteSpace=wrap;connectable=0;strokeColor=inherit;overflow=hidden;fillColor=none;top=0;left=0;bottom=0;right=0;pointerEvents=1;" vertex="1" parent="UJf2TBtO_j2sOsm5yo5M-76">
          <mxGeometry x="533" width="134" height="40" as="geometry">
            <mxRectangle width="134" height="40" as="alternateBounds" />
          </mxGeometry>
        </mxCell>
        <mxCell id="UJf2TBtO_j2sOsm5yo5M-92" style="shape=partialRectangle;html=1;whiteSpace=wrap;connectable=0;strokeColor=inherit;overflow=hidden;fillColor=none;top=0;left=0;bottom=0;right=0;pointerEvents=1;" vertex="1" parent="UJf2TBtO_j2sOsm5yo5M-76">
          <mxGeometry x="667" width="133" height="40" as="geometry">
            <mxRectangle width="133" height="40" as="alternateBounds" />
          </mxGeometry>
        </mxCell>
        <mxCell id="UJf2TBtO_j2sOsm5yo5M-80" value="" style="shape=tableRow;horizontal=0;startSize=0;swimlaneHead=0;swimlaneBody=0;strokeColor=inherit;top=0;left=0;bottom=0;right=0;collapsible=0;dropTarget=0;fillColor=none;points=[[0,0.5],[1,0.5]];portConstraint=eastwest;" vertex="1" parent="UJf2TBtO_j2sOsm5yo5M-59">
          <mxGeometry y="200" width="800" height="40" as="geometry" />
        </mxCell>
        <mxCell id="UJf2TBtO_j2sOsm5yo5M-81" value="Datatype" style="shape=partialRectangle;html=1;whiteSpace=wrap;connectable=0;strokeColor=inherit;overflow=hidden;fillColor=none;top=0;left=0;bottom=0;right=0;pointerEvents=1;fontStyle=1" vertex="1" parent="UJf2TBtO_j2sOsm5yo5M-80">
          <mxGeometry width="133" height="40" as="geometry">
            <mxRectangle width="133" height="40" as="alternateBounds" />
          </mxGeometry>
        </mxCell>
        <mxCell id="UJf2TBtO_j2sOsm5yo5M-82" value="NVARCHAR" style="shape=partialRectangle;html=1;whiteSpace=wrap;connectable=0;strokeColor=inherit;overflow=hidden;fillColor=none;top=0;left=0;bottom=0;right=0;pointerEvents=1;" vertex="1" parent="UJf2TBtO_j2sOsm5yo5M-80">
          <mxGeometry x="133" width="134" height="40" as="geometry">
            <mxRectangle width="134" height="40" as="alternateBounds" />
          </mxGeometry>
        </mxCell>
        <mxCell id="UJf2TBtO_j2sOsm5yo5M-83" value="INT" style="shape=partialRectangle;html=1;whiteSpace=wrap;connectable=0;strokeColor=inherit;overflow=hidden;fillColor=none;top=0;left=0;bottom=0;right=0;pointerEvents=1;" vertex="1" parent="UJf2TBtO_j2sOsm5yo5M-80">
          <mxGeometry x="267" width="133" height="40" as="geometry">
            <mxRectangle width="133" height="40" as="alternateBounds" />
          </mxGeometry>
        </mxCell>
        <mxCell id="UJf2TBtO_j2sOsm5yo5M-107" value="NVARCHAR" style="shape=partialRectangle;html=1;whiteSpace=wrap;connectable=0;strokeColor=inherit;overflow=hidden;fillColor=none;top=0;left=0;bottom=0;right=0;pointerEvents=1;" vertex="1" parent="UJf2TBtO_j2sOsm5yo5M-80">
          <mxGeometry x="400" width="133" height="40" as="geometry">
            <mxRectangle width="133" height="40" as="alternateBounds" />
          </mxGeometry>
        </mxCell>
        <mxCell id="UJf2TBtO_j2sOsm5yo5M-100" value="NVARCHAR" style="shape=partialRectangle;html=1;whiteSpace=wrap;connectable=0;strokeColor=inherit;overflow=hidden;fillColor=none;top=0;left=0;bottom=0;right=0;pointerEvents=1;" vertex="1" parent="UJf2TBtO_j2sOsm5yo5M-80">
          <mxGeometry x="533" width="134" height="40" as="geometry">
            <mxRectangle width="134" height="40" as="alternateBounds" />
          </mxGeometry>
        </mxCell>
        <mxCell id="UJf2TBtO_j2sOsm5yo5M-93" value="DATE" style="shape=partialRectangle;html=1;whiteSpace=wrap;connectable=0;strokeColor=inherit;overflow=hidden;fillColor=none;top=0;left=0;bottom=0;right=0;pointerEvents=1;" vertex="1" parent="UJf2TBtO_j2sOsm5yo5M-80">
          <mxGeometry x="667" width="133" height="40" as="geometry">
            <mxRectangle width="133" height="40" as="alternateBounds" />
          </mxGeometry>
        </mxCell>
        <mxCell id="UJf2TBtO_j2sOsm5yo5M-84" value="" style="shape=tableRow;horizontal=0;startSize=0;swimlaneHead=0;swimlaneBody=0;strokeColor=inherit;top=0;left=0;bottom=0;right=0;collapsible=0;dropTarget=0;fillColor=none;points=[[0,0.5],[1,0.5]];portConstraint=eastwest;" vertex="1" parent="UJf2TBtO_j2sOsm5yo5M-59">
          <mxGeometry y="240" width="800" height="40" as="geometry" />
        </mxCell>
        <mxCell id="UJf2TBtO_j2sOsm5yo5M-85" value="Max Length" style="shape=partialRectangle;html=1;whiteSpace=wrap;connectable=0;strokeColor=inherit;overflow=hidden;fillColor=none;top=0;left=0;bottom=0;right=0;pointerEvents=1;fontStyle=1" vertex="1" parent="UJf2TBtO_j2sOsm5yo5M-84">
          <mxGeometry width="133" height="40" as="geometry">
            <mxRectangle width="133" height="40" as="alternateBounds" />
          </mxGeometry>
        </mxCell>
        <mxCell id="UJf2TBtO_j2sOsm5yo5M-86" value="20" style="shape=partialRectangle;html=1;whiteSpace=wrap;connectable=0;strokeColor=inherit;overflow=hidden;fillColor=none;top=0;left=0;bottom=0;right=0;pointerEvents=1;" vertex="1" parent="UJf2TBtO_j2sOsm5yo5M-84">
          <mxGeometry x="133" width="134" height="40" as="geometry">
            <mxRectangle width="134" height="40" as="alternateBounds" />
          </mxGeometry>
        </mxCell>
        <mxCell id="UJf2TBtO_j2sOsm5yo5M-87" value="" style="shape=partialRectangle;html=1;whiteSpace=wrap;connectable=0;strokeColor=inherit;overflow=hidden;fillColor=none;top=0;left=0;bottom=0;right=0;pointerEvents=1;" vertex="1" parent="UJf2TBtO_j2sOsm5yo5M-84">
          <mxGeometry x="267" width="133" height="40" as="geometry">
            <mxRectangle width="133" height="40" as="alternateBounds" />
          </mxGeometry>
        </mxCell>
        <mxCell id="UJf2TBtO_j2sOsm5yo5M-108" value="20" style="shape=partialRectangle;html=1;whiteSpace=wrap;connectable=0;strokeColor=inherit;overflow=hidden;fillColor=none;top=0;left=0;bottom=0;right=0;pointerEvents=1;" vertex="1" parent="UJf2TBtO_j2sOsm5yo5M-84">
          <mxGeometry x="400" width="133" height="40" as="geometry">
            <mxRectangle width="133" height="40" as="alternateBounds" />
          </mxGeometry>
        </mxCell>
        <mxCell id="UJf2TBtO_j2sOsm5yo5M-101" value="100" style="shape=partialRectangle;html=1;whiteSpace=wrap;connectable=0;strokeColor=inherit;overflow=hidden;fillColor=none;top=0;left=0;bottom=0;right=0;pointerEvents=1;" vertex="1" parent="UJf2TBtO_j2sOsm5yo5M-84">
          <mxGeometry x="533" width="134" height="40" as="geometry">
            <mxRectangle width="134" height="40" as="alternateBounds" />
          </mxGeometry>
        </mxCell>
        <mxCell id="UJf2TBtO_j2sOsm5yo5M-94" style="shape=partialRectangle;html=1;whiteSpace=wrap;connectable=0;strokeColor=inherit;overflow=hidden;fillColor=none;top=0;left=0;bottom=0;right=0;pointerEvents=1;" vertex="1" parent="UJf2TBtO_j2sOsm5yo5M-84">
          <mxGeometry x="667" width="133" height="40" as="geometry">
            <mxRectangle width="133" height="40" as="alternateBounds" />
          </mxGeometry>
        </mxCell>
        <mxCell id="UJf2TBtO_j2sOsm5yo5M-110" value="&lt;b&gt;&lt;font style=&quot;font-size: 14px;&quot;&gt;Products&lt;/font&gt;&lt;/b&gt;" style="text;html=1;align=center;verticalAlign=middle;resizable=0;points=[];autosize=1;strokeColor=none;fillColor=none;" vertex="1" parent="1">
          <mxGeometry x="40" y="890" width="80" height="30" as="geometry" />
        </mxCell>
      </root>
    </mxGraphModel>
  </diagram>
</mxfile>
